General
Complete name                    : D:UPLOADSBUBLE GANGBubble Gang 070210Bubble Gang 070210.mp4
Format                           : MPEG-4
Format profile                   : Base Media / Version 2
Codec ID                         : mp42
File size                        : 450 MiB
Duration                         : 50mn 25s
Overall bit rate                 : 1 248 Kbps
Encoded date                     : UTC 2010-07-03 01:31:55
Tagged date                      : UTC 2010-07-03 01:48:28
Writing application              : HandBrake 0.9.4 2009112300

Video
ID                               : 1
Format                           : AVC
Format/Info                      : Advanced Video Codec
Format profile                   : Main@L3.0
Format settings, CABAC           : Yes
Format settings, ReFrames        : 2 frames
Codec ID                         : avc1
Codec ID/Info                    : Advanced Video Coding
Duration                         : 50mn 25s
Bit rate mode                    : Variable
Bit rate                         : 1 083 Kbps
Width                            : 592 pixels
Height                           : 448 pixels
Display aspect ratio             : 4:3
Frame rate mode                  : Variable
Frame rate                       : 29.970 fps
Minimum frame rate               : 14.983 fps
Maximum frame rate               : 29.970 fps
Color space                      : YUV
Chroma subsampling               : 4:2:0
Bit depth                        : 8 bits
Scan type                        : Progressive
Bits/(Pixel*Frame)               : 0.136
Stream size                      : 391 MiB (87%)
Writing library                  : x264 core 79
Encoding settings                : cabac=1 / ref=2 / deblock=1:0:0 / analyse=0x1:0x111 / me=hex / subme=6 / psy=1 / psy_rd=1.0:0.0 / mixed_ref=0 / me_range=16 / chroma_me=1 / trellis=0 / 8x8dct=0 / cqm=0 / deadzone=21,11 / chroma_qp_offset=-2 / threads=6 / nr=0 / decimate=1 / mbaff=0 / constrained_intra=0 / bframes=2 / b_pyramid=0 / b_adapt=1 / b_bias=0 / direct=1 / wpredb=0 / wpredp=2 / keyint=300 / keyint_min=30 / scenecut=40 / rc_lookahead=40 / rc=2pass / mbtree=1 / bitrate=1083 / ratetol=1.0 / qcomp=0.60 / qpmin=10 / qpmax=51 / qpstep=4 / cplxblur=20.0 / qblur=0.5 / ip_ratio=1.40 / aq=1:1.00
Encoded date                     : UTC 2010-07-03 01:31:55
Tagged date                      : UTC 2010-07-03 01:48:27
Color primaries                  : BT.601-6 525, BT.1358 525, BT.1700 NTSC, SMPTE 170M
Transfer characteristics         : BT.709-5, BT.1361
Matrix coefficients              : BT.601-6 525, BT.1358 525, BT.1700 NTSC, SMPTE 170M

Audio
ID                               : 2
Format                           : AAC
Format/Info                      : Advanced Audio Codec
Format version                   : Version 4
Format profile                   : LC
Format settings, SBR             : No
Codec ID                         : 40
Duration                         : 50mn 25s
Bit rate mode                    : Variable
Bit rate                         : 160 Kbps
Maximum bit rate                 : 181 Kbps
Channel(s)                       : 2 channels
Channel positions                : Front: L R
Sampling rate                    : 48.0 KHz
Stream size                      : 57.7 MiB (13%)
Encoded date                     : UTC 2010-07-03 01:31:55
Tagged date                      : UTC 2010-07-03 01:48:27

